<svg width="41" height="41" viewBox="0 0 41 41" fill="none" xmlns="http://www.w3.org/2000/svg">
<g clip-path="url(#clip0_1_502)">
<path d="M20.5 0.5C9.45667 0.5 0.5 9.455 0.5 20.5C0.5 29.3367 6.23 36.8333 14.1783 39.4783C15.1767 39.6633 15.5 39.0433 15.5 38.5167V34.7933C9.93667 36.0033 8.77833 32.4333 8.77833 32.4333C7.86833 30.1217 6.55667 29.5067 6.55667 29.5067C4.74167 28.265 6.695 28.2917 6.695 28.2917C8.70333 28.4317 9.76 30.3533 9.76 30.3533C11.5433 33.41 14.4383 32.5267 15.58 32.015C15.7583 30.7233 16.2767 29.84 16.85 29.3417C12.4083 28.8333 7.73833 27.1183 7.73833 19.4567C7.73833 17.2717 8.52 15.4883 9.79833 14.0883C9.59167 13.5833 8.90667 11.5483 9.99333 8.795C9.99333 8.795 11.6733 8.25833 15.495 10.845C17.09 10.4017 18.8 10.18 20.5 10.1717C22.2 10.18 23.9117 10.4017 25.51 10.845C29.3283 8.25833 31.005 8.795 31.005 8.795C32.0933 11.55 31.4083 13.585 31.2017 14.0883C32.485 15.4883 33.26 17.2733 33.26 19.4567C33.26 27.1383 28.5817 28.83 24.1283 29.325C24.845 29.945 25.5 31.1617 25.5 33.0283V38.5167C25.5 39.0483 25.82 39.6733 26.835 39.4767C34.7767 36.8283 40.5 29.3333 40.5 20.5C40.5 9.455 31.545 0.5 20.5 0.5Z" fill="white"/>
</g>
<defs>
<clipPath id="clip0_1_502">
<rect width="40" height="40" fill="white" transform="translate(0.5 0.5)"/>
</clipPath>
</defs>
</svg>
